<svg xmlns="http://www.w3.org/2000/svg" viewBox="0 0 1036.01 1078.5">
    <defs>
        <style>.cls-1{fill:#9cdaf0;}.cls-2{fill:#7cbae6;}.cls-3{fill:#c3e3d7;}.cls-4{fill:#f4cab1;}.cls-5{fill:#fff;}.cls-6{fill:#ac5c51;}.cls-7{fill:#4b63e1;}.cls-8{fill:#fdfe01;}.cls-9{fill:none;stroke:#999;stroke-miterlimit:10;stroke-width:14px;}.cls-10{fill:#999;}</style>
    </defs>
    <title>logo</title>
    <g id="图层_2" data-name="图层 2">
        <ellipse class="cls-1" cx="303.15" cy="1018.3" rx="168.91" ry="58.54" />
        <path class="cls-2" d="M270.38,1101.73c3.85.67,7.76.15,11.63-.06,4.4,1.63,9.16,1.91,13.53,3.64a35,35,0,0,1,16.4,11.83c.3-1.44.59-2.87.88-4.3,4.3,3.42,10.15,1.06,14.87-.1,5,2.37,10.23,4.65,14.37,8.48,8.94,7.68,13.37,19.49,13.84,31.07.27,9.23.14,18.47.35,27.71-10.18.07-20.36-.44-30.49-1.38.3-5.35.12-10.7.16-16,0-6.06.33-12.18-.83-18.15-1.39-8.08-4.07-16.45-10.28-22.15,1,4.21,2.19,8.43,2.14,12.81.06,11.4,0,22.79,0,34.19.06,2.9-.47,6,.75,8.71-9.82-.88-19.61-2.15-29.31-3.91,0-10.33,0-20.66,0-31,0-3.5.19-7.07-.74-10.48-2-7.71-6.8-15.06-14.13-18.6-2.89-1.39-6.21-3.07-7.12-6.42C265.69,1104.8,268.71,1103.3,270.38,1101.73Z" transform="translate(-59.85 -103)" />
        <path class="cls-2" d="M438.82,1101.66c3.86.22,7.77.74,11.62.08,1.55,1.46,4.14,2.67,4.07,5.12-.47,3.55-3.84,5.56-6.81,6.91-8.11,3.74-13.25,12-14.93,20.6-.7,4.44-.24,9-.35,13.43.1,9-.21,18,.16,27-8.75,1.46-17.58,2.58-26.43,3.29L404,1178c-.15-14.08,0-28.16-.07-42.25-.13-4.48,1-8.83,2-13.16-4.3,3.58-6.7,8.84-8.34,14.08a60.27,60.27,0,0,0-2.67,17.23c0,8.39.1,16.78-.06,25.18-10.08.71-20.17,1.11-30.26,1,.2-9.22.1-18.45.35-27.67.46-11.29,4.62-22.79,13.13-30.5,4.28-4.15,9.75-6.64,15.09-9.11,4.72,1.17,10.52,3.5,14.84.12.28,1.43.59,2.86.89,4.3a35.29,35.29,0,0,1,17.88-12.35C430.72,1103.46,434.92,1103.14,438.82,1101.66Z" transform="translate(-59.85 -103)" />
        <g id="图层_4" data-name="图层 4">
            <path d="M530,865.4c3.94-14.44,5.51-29.4,6.16-44.32.51-14.09,1-28.36-2-42.23a109.88,109.88,0,0,0-30.6-56.44c6.85-22.93,4-47.9-4.81-69.88-9.72-1.6-19.55.73-28.77,3.68-16.66,5.56-32,14.36-46.59,24A262.43,262.43,0,0,0,373.87,673a273.07,273.07,0,0,0-85.33,8.86C271.77,670.56,254,660.2,234.4,654.66c-7.65-2-15.7-3.48-23.61-2.13-9.44,23.55-12.12,50.72-3.06,74.82a108.14,108.14,0,0,0-27.46,54.23,121.6,121.6,0,0,0-1.89,24c.18,20.17,2.36,40.55,9.08,59.67-42.67-1.42-85.65.61-127.61,8.86v.31l.37,1.94c42.13-8.25,85.27-10.27,128.1-8.78q2.16,5.53,4.77,10.88c-44.58,1.6-89.23,7-132.28,18.92.15.55.45,1.65.61,2.2,43.22-12,88-17.28,132.79-18.91a109.59,109.59,0,0,0,10.42,15.61c10.42,13,24.26,22.86,39.27,29.83,21.43,10,44.86,14.7,68.22,17.26-11.58,7.73-19.22,20.4-22,33.93l-.24.37c-14,6.23-30.11,9.36-45,4.74-13.46-4-24.11-14.51-30.61-26.6a55.31,55.31,0,0,0-9.61-13.13c3.74-2.84,7.56-6.32,8.47-11.12.53-2.47-33.33-1.31-33.33-1.31-6.05,1.82-8.46,9.44-5.63,14.74a10.39,10.39,0,0,0,4.08,4.26c3.72,2.52,6.63,6,9.72,9.18l17.79,32.71a57.55,57.55,0,0,0,30.08,24.51c16.83,6.12,35.27,4.91,52.57,1.51,0,16.93.09,33.88-.06,50.81-1.24,8.32-5.64,16.5-12.92,21-2.32,1.53-5.26,2.12-7.13,4.29-1.17,1.3-2.33,3-1.89,4.87s2.41,2.73,4,3.59c3.85.67,7.76.15,11.63-.06a54.69,54.69,0,0,0,16.63-4.3c6.61-2.93,12.46-8,15.44-14.68,2.72-5.76,3-12.26,2.91-18.52-.05-19.09.08-38.18-.1-57.27.41-8.49,2-18.11,9-23.79.09,26.76,0,53.52,0,80.27,0,6.28.33,12.63-1,18.83-1.47,7.57-3.9,15.58-9.8,20.92a9,9,0,0,0-2.33,9.71c4.3,3.42,10.15,1.06,14.87-.1a42.62,42.62,0,0,0,12.16-6.34,40,40,0,0,0,14.95-24.33c1.48-6.58,1.13-13.35,1.23-20q.32-40.73.63-81.43h7.52q.33,40.68.64,81.38c0,9.13-.18,18.55,3.29,27.16a39.61,39.61,0,0,0,25.06,23.61c4.72,1.17,10.52,3.5,14.84.12a9,9,0,0,0-2.32-9.75c-6.14-5.58-8.54-14-10-21.88-1.15-6-.72-12.14-.79-18.21,0-26.37-.05-52.74,0-79.12,6.78,5.81,8.67,15.19,9,23.69-.11,18.71,0,37.43,0,56.14-.37,8.16.54,16.89,5.59,23.64,6.72,9.24,18.38,13.12,29.32,14.29,3.86.22,7.77.74,11.62.08,1.92-.93,4.46-2.38,4.05-4.92-.65-3-3.26-5.15-6-6.23-9.24-4-15-13.64-16.06-23.38q0-28.82,0-57.61c-.09-12.18.75-24.62-2.76-36.45a52.43,52.43,0,0,0-20.76-29.64,268.88,268.88,0,0,0,45.06-8c18.33-5.09,36.37-13,50.42-26.14a87.22,87.22,0,0,0,20.25-28.7c45.42,1.42,90.93,6.78,134.81,18.92.14-.55.44-1.65.59-2.2-43.75-12.14-89.14-17.5-134.44-19q2.1-5.26,3.76-10.68c43.88-1.73,88.11.2,131.27,8.66.1-.5.29-1.48.38-2v-.3C617.93,865.68,573.81,863.74,530,865.4Z" transform="translate(-59.85 -103)" />
            <path class="cls-3" d="M203.52,951c2.29-.21,5.44.91,5.7,3.51-.75,4.49-8.51,4.72-10.11.68C198.57,952.65,201.37,951.11,203.52,951Z" transform="translate(-59.85 -103)" />
            <path class="cls-3" d="M209.65,962.61c2.38-.64,5.5-.32,6.87,2,1.07,2-1,4.12-3,4.48-2.41.61-5.61,0-6.75-2.41C206,964.74,208,963.12,209.65,962.61Z" transform="translate(-59.85 -103)" />
            <path class="cls-3" d="M217.27,973.48c2.58-1.21,6.54-.73,7.88,2,.68,4.25-5.55,5.37-8.35,3.46C214.32,977.9,214.76,974.24,217.27,973.48Z" transform="translate(-59.85 -103)" />
            <path class="cls-3" d="M229,982.46c2.77-1.38,7.73-.27,7.78,3.32-1.36,3.82-7.35,4.18-9.69,1.14C225.66,985.24,227.22,983,229,982.46Z" transform="translate(-59.85 -103)" />
            <path class="cls-3" d="M276.78,986.06c2.87-1.83,9-.42,8,3.8-1.81,3.15-7,3.22-9.31.69C274,989.05,275.07,986.75,276.78,986.06Z" transform="translate(-59.85 -103)" />
            <path class="cls-3" d="M261.47,988.27c2.14-.51,4.71-.45,6.35,1.2a2.67,2.67,0,0,1-.18,4.13c-2.52,2.06-7,1.81-8.84-1C257.92,990.61,259.65,988.81,261.47,988.27Z" transform="translate(-59.85 -103)" />
            <path class="cls-3" d="M244.47,988.72c2.52-1.21,6.25-1.1,7.93,1.42a2.87,2.87,0,0,1-1.12,3.78,6.46,6.46,0,0,1-8.1-.85C242,991.65,242.85,989.4,244.47,988.72Z" transform="translate(-59.85 -103)" />
        </g>
        <path class="cls-4" d="M281,788.72c13.74-1.16,27.54,0,41.28.9,16.7,1.19,33.48,2.23,50.23,1.36,19.72-.7,39.38-3.4,59.14-2.69,12.84.52,26.3,3.22,36.51,11.52,10.91,9.26,20,21.35,23.5,35.4,2.11,8,1.73,16.29,1.15,24.43-1,12.76-4,25.65-10.86,36.61a58.22,58.22,0,0,1-21.5,20.2c-11.33,6.32-24.12,9.42-36.86,11.35-16.67,2.44-33.54,2.83-50.36,3-19.24.14-38.54.15-57.72-1.78-15-1.51-30-4.1-44.16-9.48-13.6-5.14-26.38-13.55-34.6-25.75-9.43-13.73-12.49-30.82-12.21-47.22.28-13.66,6.4-26.65,15.19-36.91,4.47-5.13,9.3-10.12,15.27-13.51C262.83,791.55,271.93,789.54,281,788.72Z" transform="translate(-59.85 -103)" />
        <path class="cls-5" d="M283.54,812.07c6.23-.9,12.57,1.52,17.2,5.66,6.83,6.06,10.72,14.82,12.43,23.66,2.22,11.94.85,24.77-4.94,35.54-3.43,6.34-8.74,12.08-15.73,14.41a20.69,20.69,0,0,1-18.68-3.11c-7.65-5.54-12.12-14.49-14.2-23.52-2.86-12.9-1.45-27,5.22-38.58C268.83,819.24,275.38,813.17,283.54,812.07Zm-.62,14.21c-8.18,2.52-12.72,11-14.29,18.9-1.74,9-.44,19,4.86,26.62,3,4.28,7.75,7.74,13.14,7.65,5.21,0,9.85-3.26,12.78-7.38,5.06-7.1,6.57-16.28,5.41-24.81-.94-6.56-3.61-13.17-8.64-17.64A14.22,14.22,0,0,0,282.92,826.28Z" transform="translate(-59.85 -103)" />
        <path class="cls-5" d="M433.21,812.11c6.24-1,12.64,1.34,17.31,5.46,6.91,6,10.85,14.79,12.6,23.65,2.22,11.77,1,24.39-4.57,35.1-3.41,6.51-8.71,12.47-15.81,14.93a20.49,20.49,0,0,1-18.32-2.6c-7.28-4.94-11.78-13-14.15-21.33a55.45,55.45,0,0,1,3-38.39C417.18,820.94,424.07,813.53,433.21,812.11Zm0,14.1a18.05,18.05,0,0,0-10.12,7.86c-3.95,6-5.46,13.39-5.12,20.52.34,6.75,2.43,13.61,6.82,18.87,3,3.55,7.42,6.19,12.18,6,5.33-.12,10-3.65,12.85-7.94,5-7.4,6.3-16.84,4.82-25.54-1.15-6.32-3.92-12.66-9-16.8A14,14,0,0,0,433.17,826.21Z" transform="translate(-59.85 -103)" />
        <path class="cls-6" d="M282.92,826.28a14.22,14.22,0,0,1,13.26,3.34c5,4.47,7.7,11.08,8.64,17.64,1.16,8.53-.35,17.71-5.41,24.81-2.93,4.12-7.57,7.4-12.78,7.38-5.39.09-10.17-3.37-13.14-7.65-5.3-7.66-6.6-17.59-4.86-26.62C270.2,837.28,274.74,828.8,282.92,826.28Z" transform="translate(-59.85 -103)" />
        <path class="cls-6" d="M433.17,826.21a14,14,0,0,1,12.44,3c5.07,4.14,7.84,10.48,9,16.8,1.48,8.7.16,18.14-4.82,25.54-2.88,4.29-7.52,7.82-12.85,7.94-4.76.2-9.2-2.44-12.18-6-4.39-5.26-6.48-12.12-6.82-18.87-.34-7.13,1.17-14.51,5.12-20.52A18.05,18.05,0,0,1,433.17,826.21Z" transform="translate(-59.85 -103)" />
        <path class="cls-6" d="M357.3,881.1c5-1.67,10.28,3.55,8.71,8.55-1.09,5-8.12,7-11.65,3.25C350.47,889.46,352.24,882.28,357.3,881.1Z" transform="translate(-59.85 -103)" />
        <path class="cls-6" d="M343.74,902.92a2.11,2.11,0,0,1,3.2.73c.95,1.73,1.71,3.61,3.16,5a12.72,12.72,0,0,0,14.58,2.56c3.18-1.42,5.28-4.33,6.66-7.42.8-2.31,4.58-1.22,4.21,1.15-2,7.1-9.14,12.2-16.46,12.07A17.22,17.22,0,0,1,343,905.58,2.17,2.17,0,0,1,343.74,902.92Z" transform="translate(-59.85 -103)" />
    </g>
    <g id="图层_1" data-name="图层 1">
        <g id="_4b63e1ff" data-name="#4b63e1ff">
            <path class="cls-7" d="M254,124.72C525.6,234,824.25,79.64,1095.85,188.91Q1078.93,425.12,1062,661.32C790.4,552.06,491.75,706.4,220.15,597.13Q237.07,360.93,254,124.72M615.7,284.45c-5.73,5.68-12.24,11.1-15.58,18.44-4.07,8.17-7.21,18.58-7.53,27.75-4.71,65.89-9.52,131.77-14.05,197.67,7.55-4.58,13.2-11.64,19.61-17.64S610.82,498.1,617.41,492c2.75-2.61,6.08-5.55,6.05-9.4Q631,376.32,638.68,270a54.79,54.79,0,0,0-.13-7.59c-7.91,7-15.24,14.69-22.85,22m61.39-14.17c-7,7-14.07,13.77-20.94,20.84-5,5-7.08,11.77-9.42,18-3.26,13.32-4.46,25.34-5.39,39Q636,422.49,630.69,496.85c-.79,9.49-1.7,19.24-1.26,28.77,3.72-2.68,6.83-6.07,10.09-9.25,9.92-10,20.12-19.75,30.21-29.6,1.68-1.81,3.73-3.74,3.87-6.21.74-6.69.91-13.36,1.49-20.05,4.76-67.35,9.82-134.68,14.31-202-4.41,3.61-8,8-12.31,11.82m33.44,12.9c-9.9,9.41-14.7,22.62-16.61,35.87q-7.32,101.38-14.48,202.78c4.63-2.59,7.89-6.88,11.62-10.52,10-9.59,19.73-19.38,29.73-28.94,2-1.91,3.82-4.3,3.74-7q7.54-107.2,15.33-214.4a49.15,49.15,0,0,0-.08-6c-10,9.08-19.44,18.83-29.25,28.15M761.06,259a52.9,52.9,0,0,0-1.19,17.74c8.31,1,17.27-1.49,25.23,1,4.4,1.14,8.36,4,9.67,8.43,2.65,9.09,1.59,20,.57,29.28-.68,9.93-1.58,19.84-2,29.78.28,8.51,1.07,17.64,6.3,24.23,3.19,4.18,8.73,5.47,12.49,9-2.41,3-6.08,4.27-9.17,6.36a27.7,27.7,0,0,0-9.29,11.15c-4,8.65-5.62,18-6,27.07-.85,11.95-1.7,23.89-2.62,35.84-.76,5.72-2,11.67-5.16,16.91-3.74,5.64-10.73,7.3-16.73,8.39-5.84,1.36-11.67.82-17.52,1.87l-1.17,1.26a63,63,0,0,0-.91,16.45c3.37.68,7,.1,10.48-.06a119.16,119.16,0,0,0,27.88-4.38c6.45-2.22,13.47-5.19,17.54-11.12,4.88-6.88,7.26-14.92,8.77-22.82,1.36-9.17,1.14-18.34,2.58-27.52.77-4.68,0-9.31.83-14,.87-4.92.94-9.9,2.28-14.78,1.5-6.22,4.21-13,10.15-16.56,8.75-5.23,21.29-5.71,31.17-5.4.7-6.08,1.13-12.21,1.3-18.3-5.63-.49-11.38.06-17-.82-7.07-.83-14.81-3-18.28-9.43-3.23-6.38-3.6-14-3.11-21.31.42-15,1.76-30,2.5-45-.47-9-1.51-18.73-7.51-25.41-6.34-6.72-16.5-7.82-25.71-8.66-8.72-.06-17.5-1.24-26.37.82M539.82,281.13a40.13,40.13,0,0,0-16.77,9.32c-6.12,6.22-8.5,14.65-10.15,22.58-2.43,17.27-3.33,34.58-4.91,51.94-1.25,7.16-2.73,15-8.38,20.61-5,5.2-12.33,6.3-18.87,7.43-4.92,1.05-9.85.3-14.76,1.13-1,5.64-1.91,11.54-.88,17.1,5.76,1.62,12.07,0,17.9,1.38,5.63,1.24,11.64,3,15.11,7.68,3.84,5.13,4.36,12,4.57,18.42-.9,17.63-2.52,35.12-2.5,52.79.68,7.21,1.45,14.91,5.88,20.57s11.46,8.6,18.72,9.59a160.61,160.61,0,0,0,35-.08A54.8,54.8,0,0,0,561,503.8c-4.49-.84-9.25-.15-13.89,0-5.82.18-11.84-.34-16.7-3-5.18-3.83-5.79-11.16-6.08-17.43.82-14.51,2.06-29,3-43.51,1-9.25-.81-22-7.09-29.3-3.73-4.65-10.06-5.78-15.1-8.66,7.32-2.56,15.16-6.1,19.62-13.05,5.34-7.52,7.66-18.67,8.22-27.72q1.41-18.83,2.73-37.66a53.32,53.32,0,0,1,3.52-15.75c1.61-4.5,5.94-7.58,10.29-9.2,8.85-3.06,18-2.79,27-4a169.79,169.79,0,0,0,1.42-17.5,21.51,21.51,0,0,0-3.86-.41,212.53,212.53,0,0,0-34.17,4.55m28.92,53.51c-5,5-10.16,10.06-14.22,15.86a44.5,44.5,0,0,0-7.59,23c-2,29.15-4.27,58.27-6.08,87.43,4-2.14,6.86-5.89,10.11-9,8.77-8.51,16.31-16.42,23.56-26.27a36.54,36.54,0,0,0,5.3-16.62q2.55-36.3,5.18-72.61a127.67,127.67,0,0,0,.53-17.12c-6.13,4.52-11.32,10.13-16.79,15.37m200.9-1.53c-6.16,5.72-12,11.77-17.8,17.9a49,49,0,0,0-12.36,24.17c-1.11,4.94-1.22,9.88-1.6,14.82-1.26,18.08-2.59,36.16-3.87,54.24-.5,8.08-1.5,16.24-1,24.22,5.78-4.65,10.51-10.35,16-15.29,6.78-6.19,14-13.9,18.26-22.13,2-3.66,3.75-7.57,3.88-11.58,2.09-30,4.38-60.07,6.35-90.11C774.54,328,771.9,331.27,769.64,333.11Z" transform="translate(-59.85 -103)" />
        </g>
        <g id="_fdfe01ff" data-name="#fdfe01ff">
            <path class="cls-8" d="M615.7,284.45c7.61-7.35,14.94-15,22.85-22a54.79,54.79,0,0,1,.13,7.59q-7.57,106.32-15.22,212.64c0,3.85-3.3,6.79-6.05,9.4-6.59,6.06-12.71,12.56-19.26,18.63s-12.06,13.06-19.61,17.64c4.53-65.9,9.34-131.78,14.05-197.67.32-9.17,3.46-19.58,7.53-27.75C603.46,295.55,610,290.13,615.7,284.45Z" transform="translate(-59.85 -103)" />
            <path class="cls-8" d="M677.09,270.28c4.26-3.78,7.9-8.21,12.31-11.82-4.49,67.37-9.55,134.7-14.31,202.05-.58,6.69-.75,13.36-1.49,20.05-.14,2.47-2.19,4.4-3.87,6.21-10.09,9.85-20.29,19.58-30.21,29.6-3.26,3.18-6.37,6.57-10.09,9.25-.44-9.53.47-19.28,1.26-28.77q5.28-74.37,10.65-148.72c.93-13.67,2.13-25.69,5.39-39,2.34-6.23,4.38-13,9.42-18C663,284.05,670.14,277.25,677.09,270.28Z" transform="translate(-59.85 -103)" />
            <path class="cls-8" d="M710.53,283.18c9.81-9.32,19.21-19.07,29.25-28.15a49.15,49.15,0,0,1,.08,6q-7.67,107.2-15.33,214.4c.08,2.69-1.73,5.08-3.74,7-10,9.56-19.77,19.35-29.73,28.94-3.73,3.64-7,7.93-11.62,10.52q7-101.4,14.48-202.78C695.83,305.8,700.63,292.59,710.53,283.18Z" transform="translate(-59.85 -103)" />
            <path class="cls-8" d="M761.06,259c8.87-2.06,17.65-.88,26.37-.82,9.21.84,19.37,1.94,25.71,8.66,6,6.68,7,16.39,7.51,25.41-.74,15-2.08,30-2.5,45-.49,7.32-.12,14.93,3.11,21.31,3.47,6.39,11.21,8.6,18.28,9.43,5.57.88,11.32.33,17,.82-.17,6.09-.6,12.22-1.3,18.3-9.88-.31-22.42.17-31.17,5.4-5.94,3.57-8.65,10.34-10.15,16.56-1.34,4.88-1.41,9.86-2.28,14.78-.79,4.68-.06,9.31-.83,14-1.44,9.18-1.22,18.35-2.58,27.52-1.51,7.9-3.89,15.94-8.77,22.82-4.07,5.93-11.09,8.9-17.54,11.12A119.16,119.16,0,0,1,754,503.64c-3.51.16-7.11.74-10.48.06a63,63,0,0,1,.91-16.45l1.17-1.26c5.85-1.05,11.68-.51,17.52-1.87,6-1.09,13-2.75,16.73-8.39,3.14-5.24,4.4-11.19,5.16-16.91.92-11.95,1.77-23.89,2.62-35.84.43-9.08,2-18.42,6-27.07A27.7,27.7,0,0,1,803,384.76c3.09-2.09,6.76-3.39,9.17-6.36-3.76-3.55-9.3-4.84-12.49-9-5.23-6.59-6-15.72-6.3-24.23.42-9.94,1.32-19.85,2-29.78,1-9.24,2.08-20.19-.57-29.28-1.31-4.4-5.27-7.29-9.67-8.43-8-2.45-16.92.06-25.23-1A52.9,52.9,0,0,1,761.06,259Z" transform="translate(-59.85 -103)" />
            <path class="cls-8" d="M539.82,281.13A212.53,212.53,0,0,1,574,276.58a21.51,21.51,0,0,1,3.86.41,169.79,169.79,0,0,1-1.42,17.5c-9,1.22-18.13.95-27,4-4.35,1.62-8.68,4.7-10.29,9.2a53.32,53.32,0,0,0-3.52,15.75q-1.33,18.84-2.73,37.66c-.56,9.05-2.88,20.2-8.22,27.72-4.46,6.95-12.3,10.49-19.62,13.05,5,2.88,11.37,4,15.1,8.66,6.28,7.34,8.05,20,7.09,29.3-.92,14.51-2.16,29-3,43.51.29,6.27.9,13.6,6.08,17.43,4.86,2.7,10.88,3.22,16.7,3,4.64-.17,9.4-.86,13.89,0a54.8,54.8,0,0,1-1.17,17.79,160.61,160.61,0,0,1-35,.08c-7.26-1-14.34-3.95-18.72-9.59s-5.2-13.36-5.88-20.57c0-17.67,1.6-35.16,2.5-52.79-.21-6.45-.73-13.29-4.57-18.42-3.47-4.66-9.48-6.44-15.11-7.68-5.83-1.35-12.14.24-17.9-1.38-1-5.56-.16-11.46.88-17.1,4.91-.83,9.84-.08,14.76-1.13,6.54-1.13,13.84-2.23,18.87-7.43,5.65-5.57,7.13-13.45,8.38-20.61,1.58-17.36,2.48-34.67,4.91-51.94,1.65-7.93,4-16.36,10.15-22.58A40.13,40.13,0,0,1,539.82,281.13Z" transform="translate(-59.85 -103)" />
            <path class="cls-8" d="M568.74,334.64c5.47-5.24,10.66-10.85,16.79-15.37a127.67,127.67,0,0,1-.53,17.12q-2.58,36.3-5.18,72.61a36.54,36.54,0,0,1-5.3,16.62c-7.25,9.85-14.79,17.76-23.56,26.27-3.25,3.12-6.07,6.87-10.11,9,1.81-29.16,4.07-58.28,6.08-87.43a44.5,44.5,0,0,1,7.59-23C558.58,344.7,563.69,339.66,568.74,334.64Z" transform="translate(-59.85 -103)" />
            <path class="cls-8" d="M769.64,333.11c2.26-1.84,4.9-5.09,7.87-3.76-2,30-4.26,60.07-6.35,90.11-.13,4-1.86,7.92-3.88,11.58C763.05,439.27,755.8,447,749,453.17c-5.46,4.94-10.19,10.64-16,15.29-.54-8,.46-16.14,1-24.22,1.28-18.08,2.61-36.16,3.87-54.24.38-4.94.49-9.88,1.6-14.82A49,49,0,0,1,751.84,351C757.62,344.88,763.48,338.83,769.64,333.11Z" transform="translate(-59.85 -103)" />
        </g>
    </g>
    <g id="图层_3" data-name="图层 3">
        <line class="cls-9" x1="112.15" y1="1078" x2="188.15" y2="20" />
        <circle class="cls-10" cx="188.15" cy="12" r="12" />
        <path d="M204.5,942.5c-3.55.27-18.45,11.74-24,8.47-4.78-2.81,1.64-20.75,1.64-20.75l14.79-.17S204.85,942.48,204.5,942.5Z" transform="translate(-59.85 -103)" />
    </g>
</svg>